<svg width="373" height="148" viewBox="0 0 373 148" fill="none" xmlns="http://www.w3.org/2000/svg">
<path d="M49.605 7.98499C41.731 9.98399 34.934 13.198 28.92 17.922C1.33701 39.584 -0.458984 79.766 24.987 104.679C29.095 108.695 33.607 112.157 38.71 114.8C40.054 115.5 41.04 116.513 41.961 117.609C48.822 125.732 53.197 135.015 54.707 145.561C54.956 147.274 55.508 147.799 57.424 147.688C62.526 147.403 67.647 147.209 72.74 147.67C75.18 147.891 75.669 147.265 75.733 145.368C75.982 138.046 75.061 130.918 72.546 124.038C72.012 122.583 71.984 121.91 73.798 121.772C81.267 121.21 88.331 119.101 94.999 115.712C96.362 115.021 97.163 115.104 98.232 116.292C105.6 124.489 110.306 133.956 111.983 144.852C112.314 147.044 113.024 147.818 115.317 147.726C120.419 147.542 125.54 147.606 130.651 147.708C132.346 147.745 133.009 147.349 133.092 145.507C133.774 129.417 128.57 115.557 117.398 104.007C115.731 102.285 115.547 101.097 116.569 99.015C126.46 78.809 141.749 64.322 162.471 55.637C164.727 54.688 165.501 53.629 165.381 51.207C165.16 46.961 165.325 46.952 161.163 47.035C146.031 47.339 131.959 51.391 118.908 59.017C117.738 59.699 116.808 59.754 115.592 59.349C112.931 58.465 110.241 57.663 107.543 56.927C105.95 56.494 104.421 56.66 103.647 58.41C102.874 60.16 103.85 61.284 105.185 62.269C109.256 65.29 109.228 65.281 105.424 68.707C99.797 73.782 94.722 79.427 89.003 84.428C77.002 94.936 54.558 96.511 39.095 85.893C25.087 76.278 18.124 62.822 19.718 45.922C21.394 28.092 31.249 15.797 47.946 9.10999C48.342 8.95299 48.738 8.80598 49.125 8.63998C49.189 8.61198 49.217 8.51098 49.595 7.98598H49.604L49.605 7.98499Z" fill="url(#paint0_linear_256_1155)"/>
<path d="M33.709 117.839C27.621 114.155 22.243 109.624 17.629 104.209C16.791 103.224 16.376 103.592 15.686 104.329C4.72603 116.09 -0.338972 129.979 0.462028 146.04C0.536028 147.449 1.16203 147.707 2.37803 147.698C7.99603 147.661 13.623 147.661 19.241 147.716C20.475 147.726 21.028 147.357 21.313 146.104C23.542 136.587 27.671 127.165 33.7 117.839H33.709Z" fill="url(#paint1_linear_256_1155)"/>
<g opacity="0.2">
<path d="M53.9421 102.385C73.8451 102.321 92.3931 97.301 109.597 87.327C117.039 81.58 124.471 75.833 131.913 70.086C132.07 69.93 132.208 69.773 132.364 69.626C132.502 69.543 132.649 69.46 132.788 69.377C135.155 67.94 137.485 66.458 139.741 64.855C143.536 62.156 147.358 59.384 151.124 56.548C156.014 54.632 160.803 52.348 165.501 49.705C165.529 50.138 165.556 50.626 165.584 51.206C165.713 53.619 164.93 54.687 162.674 55.636C141.952 64.321 126.663 78.808 116.772 99.014C115.75 101.095 115.934 102.293 117.601 104.006C128.763 115.555 133.976 129.416 133.295 145.506C133.221 147.348 132.549 147.735 130.854 147.707C125.743 147.606 120.622 147.541 115.52 147.725C113.227 147.808 112.527 147.034 112.186 144.851C110.51 133.956 105.804 124.488 98.4361 116.291C97.3681 115.103 96.5661 115.02 95.2031 115.711C88.5351 119.091 81.4711 121.2 74.0021 121.771C72.1881 121.909 72.2151 122.582 72.7501 124.037C75.2641 130.917 76.185 138.045 75.937 145.367C75.872 147.264 75.3841 147.9 72.9441 147.669C67.8511 147.199 62.7301 147.393 57.6281 147.687C55.7221 147.798 55.16 147.273 54.911 145.56C53.4 135.006 49.026 125.731 42.165 117.608C41.235 116.512 40.2491 115.489 38.9141 114.799C33.8121 112.156 29.29 108.693 25.191 104.678C22.364 101.915 19.8861 98.959 17.7401 95.855C29.0961 100.69 41.17 102.873 53.971 102.394L53.9421 102.385Z" fill="#234797"/>
</g>
<path d="M53.9421 102.385C73.8451 102.321 92.3931 97.301 109.597 87.327C117.039 81.58 124.471 75.833 131.913 70.086C132.07 69.93 132.208 69.773 132.364 69.626C132.502 69.543 132.649 69.46 132.788 69.377C135.155 67.94 137.485 66.458 139.741 64.855C143.536 62.156 147.358 59.384 151.124 56.548C156.014 54.632 160.803 52.348 165.501 49.705C165.529 50.138 165.556 50.626 165.584 51.206C165.713 53.619 164.93 54.687 162.674 55.636C141.952 64.321 126.663 78.808 116.772 99.014C115.75 101.095 115.934 102.293 117.601 104.006C128.763 115.555 133.976 129.416 133.295 145.506C133.221 147.348 132.549 147.735 130.854 147.707C125.743 147.606 120.622 147.541 115.52 147.725C113.227 147.808 112.527 147.034 112.186 144.851C110.51 133.956 105.804 124.488 98.4361 116.291C97.3681 115.103 96.5661 115.02 95.2031 115.711C88.5351 119.091 81.4711 121.2 74.0021 121.771C72.1881 121.909 72.2151 122.582 72.7501 124.037C75.2641 130.917 76.185 138.045 75.937 145.367C75.872 147.264 75.3841 147.9 72.9441 147.669C67.8511 147.199 62.7301 147.393 57.6281 147.687C55.7221 147.798 55.16 147.273 54.911 145.56C53.4 135.006 49.026 125.731 42.165 117.608C41.235 116.512 40.2491 115.489 38.9141 114.799C33.8121 112.156 29.29 108.693 25.191 104.678C22.364 101.915 19.8861 98.959 17.7401 95.855C29.0961 100.69 41.17 102.873 53.971 102.394L53.9421 102.385Z" fill="url(#paint2_linear_256_1155)"/>
<path d="M49.282 85.338C35.218 80.761 11.07 47.605 47.606 20.142C49.909 18.236 52.423 16.458 55.14 14.856C63.659 9.81802 72.694 7.24901 80.881 7.05501L83.616 0.184021C73.605 0.341021 62.507 3.45402 52.054 9.64302C28.127 23.808 18.77 47.67 26.506 65.326C30.862 75.263 40.302 83.727 49.273 85.348L49.282 85.338Z" fill="url(#paint3_linear_256_1155)"/>
<path d="M186.887 103.46L203.549 146.324L197.507 147.214L192.992 135.131H175.376L171.052 146.705H165.074L181.354 103.46H186.887ZM184.025 111.663L177.093 130.233H191.148L184.025 111.663Z" fill="url(#paint4_linear_256_1155)"/>
<path d="M208.319 146.705V103.46H214.424V146.705H208.319Z" fill="url(#paint5_linear_256_1155)"/>
<path d="M223.963 146.705V103.46H232.167L249.465 128.39L252.2 132.333V103.461H260.467V146.706H252.2L233.884 120.25L232.167 117.77V146.706H223.963V146.705Z" fill="url(#paint6_linear_256_1155)"/>
<path d="M266.507 146.705V103.46H292.327L293.599 109.947H274.711V121.585H288.893L290.165 128.135H274.711V140.282H295.443L296.778 146.705H266.507Z" fill="url(#paint7_linear_256_1155)"/>
<path d="M297.097 146.705L312.233 124.828L297.86 104.986L305.046 102.251L317.193 119.485L327.75 103.459H336.335L321.199 125.209L335.508 146.704H326.795L316.429 130.36L305.554 146.704H297.096L297.097 146.705Z" fill="url(#paint8_linear_256_1155)"/>
<path d="M372.33 109.883H357.512V146.705H349.181V109.883H336.017V103.46H370.995L372.331 109.883H372.33Z" fill="url(#paint9_linear_256_1155)"/>
<defs>
<linearGradient id="paint0_linear_256_1155" x1="86.201" y1="128.836" x2="86.201" y2="73.051" gradientUnits="userSpaceOnUse">
<stop stop-color="#255A9A"/>
<stop offset="1" stop-color="#4BC2C2"/>
</linearGradient>
<linearGradient id="paint1_linear_256_1155" x1="-21.143" y1="175.881" x2="51.937" y2="82.567" gradientUnits="userSpaceOnUse">
<stop stop-color="#0559A1"/>
<stop offset="0.46" stop-color="#18BAAF"/>
<stop offset="1" stop-color="#F4EA12"/>
</linearGradient>
<linearGradient id="paint2_linear_256_1155" x1="165.598" y1="98.718" x2="17.7391" y2="98.718" gradientUnits="userSpaceOnUse">
<stop stop-color="#0559A1"/>
<stop offset="0.46" stop-color="#18BAAF"/>
<stop offset="1" stop-color="#F4EA12"/>
</linearGradient>
<linearGradient id="paint3_linear_256_1155" x1="95.804" y1="20.767" x2="24.739" y2="62.845" gradientUnits="userSpaceOnUse">
<stop stop-color="#255A9A"/>
<stop offset="1" stop-color="#4BC2C2"/>
</linearGradient>
<linearGradient id="paint4_linear_256_1155" x1="372.736" y1="173.071" x2="182.142" y2="126.585" gradientUnits="userSpaceOnUse">
<stop stop-color="#008CAC"/>
<stop offset="1" stop-color="#4BC2C2"/>
</linearGradient>
<linearGradient id="paint5_linear_256_1155" x1="374.723" y1="164.924" x2="184.13" y2="118.438" gradientUnits="userSpaceOnUse">
<stop stop-color="#008CAC"/>
<stop offset="1" stop-color="#4BC2C2"/>
</linearGradient>
<linearGradient id="paint6_linear_256_1155" x1="376.455" y1="157.824" x2="185.861" y2="111.337" gradientUnits="userSpaceOnUse">
<stop stop-color="#008CAC"/>
<stop offset="1" stop-color="#4BC2C2"/>
</linearGradient>
<linearGradient id="paint7_linear_256_1155" x1="378.544" y1="149.259" x2="187.95" y2="102.773" gradientUnits="userSpaceOnUse">
<stop stop-color="#008CAC"/>
<stop offset="1" stop-color="#4BC2C2"/>
</linearGradient>
<linearGradient id="paint8_linear_256_1155" x1="380.638" y1="140.673" x2="190.044" y2="94.187" gradientUnits="userSpaceOnUse">
<stop stop-color="#008CAC"/>
<stop offset="1" stop-color="#4BC2C2"/>
</linearGradient>
<linearGradient id="paint9_linear_256_1155" x1="383.073" y1="130.688" x2="192.48" y2="84.202" gradientUnits="userSpaceOnUse">
<stop stop-color="#008CAC"/>
<stop offset="1" stop-color="#4BC2C2"/>
</linearGradient>
</defs>
</svg>
