<svg width="410" height="198" viewBox="0 0 410 198" fill="none" xmlns="http://www.w3.org/2000/svg">
<path d="M134.411 40.443C137.563 42.223 140.255 42.625 143.097 41.553C145.585 40.615 149.461 36.634 148.205 34.291C145.578 29.3881 142.057 17.1231 150.242 3.32606C151.149 1.79806 149.397 0.084046 147.881 1.01005C143.482 3.69705 138.42 8.75805 133.878 19.952C133.878 19.952 127.955 36.798 134.411 40.443Z" fill="white"/>
<path d="M107.664 45.538C111.562 45.196 112.535 44.147 114.437 41.47C116.103 39.126 117.179 33.217 114.639 31.871C109.324 29.057 98.765 20.176 97.787 2.85898C97.679 0.939984 95.182 0.244995 94.381 1.99199C92.055 7.05599 88.728 15.09 91.982 26.943C93.725 33.295 101.011 46.121 107.665 45.537L107.664 45.538Z" fill="white"/>
<path d="M90.388 74.0979C96.619 76.2349 111.32 77.4379 114.585 71.6109C116.498 68.1969 116.179 66.8029 115.039 63.7219C114.041 61.0259 109.764 56.8089 107.221 58.1509C101.902 60.9579 88.617 64.6799 73.756 55.7359C72.11 54.7449 70.13 56.4169 71.121 58.0619C73.997 62.8369 78.761 70.1109 90.389 74.0989L90.388 74.0979Z" fill="white"/>
<path d="M91.9901 87.7951C90.6361 87.6491 89.8621 89.3141 90.9891 90.0771C94.2611 92.2891 99.4921 95.5451 108.156 94.6431C112.799 94.1611 122.609 90.5521 122.972 85.8321C123.184 83.0671 122.563 82.2661 120.913 80.6261C119.468 79.1891 115.461 77.7531 114.225 79.3741C111.642 82.7651 104.21 89.1171 91.9901 87.7951Z" fill="white"/>
<path d="M317.883 124.569C316.106 123.573 311.86 123.26 311.104 125.153C309.523 129.11 304.065 137.223 291.937 139.223C290.594 139.444 290.293 141.256 291.584 141.689C295.329 142.943 301.241 144.68 309.347 141.489C313.691 139.78 322.176 133.676 321.261 129.031C320.725 126.312 319.912 125.705 317.882 124.568L317.883 124.569Z" fill="white"/>
<path d="M305.989 121.473C305.508 118.742 304.708 118.119 302.701 116.942C300.944 115.909 296.706 115.512 295.912 117.389C294.251 121.313 288.631 129.314 276.465 131.068C275.117 131.263 274.78 133.068 276.062 133.526C279.781 134.857 285.657 136.713 293.826 133.687C298.203 132.066 306.81 126.134 305.989 121.473Z" fill="white"/>
<path d="M163.179 85.6879C167.39 85.4899 171.552 83.8369 174.845 80.7009C181.875 74.0049 182.366 63.0239 176.126 55.7359C176.083 55.6759 176.054 55.6339 176.054 55.6339C175.887 55.4479 175.714 55.2639 175.536 55.0809C175.514 55.0559 175.493 55.0319 175.471 55.0089C169.123 48.3429 158.923 47.5609 151.67 52.8149C151.094 53.1169 150.523 53.4539 149.924 53.7889C132.734 63.4139 131.617 48.2229 131.617 48.2229C125.143 48.7109 117.509 57.6059 124.379 68.3519C133.057 81.9279 149.569 85.6009 163.179 85.6879Z" fill="white"/>
<path d="M323.23 87.9C314.146 83.836 303.489 87.905 299.426 96.99C297.699 100.851 297.446 104.996 298.419 108.799C307.505 109.466 316.239 113.735 322.331 121.166C326.626 119.517 330.294 116.235 332.321 111.704C336.384 102.621 332.313 91.963 323.23 87.9Z" fill="white"/>
<path d="M254.092 98.2861L254.091 98.2901L254.092 98.2861Z" fill="white"/>
<path d="M288.849 32.901C286.112 28.894 281.712 31.691 282.993 34.573C283.969 36.769 287.553 40.085 289.868 40.73C292.183 41.374 294.612 40.709 294.913 38.325C295.198 36.059 290.556 35.403 288.849 32.901Z" fill="white"/>
<path d="M408.245 78.9801C403.421 73.7861 392.984 63.2081 388.395 59.7331C329.423 15.0631 284.194 2.87509 257.632 2.87309C250.981 2.87309 245.504 3.63808 241.27 4.84608C240.892 4.95508 240.866 5.14809 241.081 5.39909C235.992 3.24709 230.609 0.871094 229.431 0.871094C220.73 0.871094 222.192 20.5121 234.607 24.2841C220.882 34.4411 193.327 80.2121 186.735 91.1071C178.834 104.169 170.723 115.267 162.458 124.375C162.563 124.261 162.677 124.145 162.782 124.031C162.782 124.031 163.11 123.712 162.717 124.143C149.909 138.183 130.093 154.95 106.266 154.95C56.648 154.95 38.057 103.001 46.722 82.7611C48.592 75.8131 41.688 73.4941 37.565 78.0121C14.605 103.17 22.143 141.441 9.40603 120.433C7.97203 118.068 3.31003 116.051 3.45303 120.433C4.34203 147.642 20.686 173.467 5.87603 166.482C2.62003 164.947 -1.06697 169.64 1.15203 172.474C45.121 228.637 131.737 172.3 137.573 168.406C137.667 168.359 137.759 168.32 137.853 168.271C137.86 168.267 137.867 168.262 137.874 168.259C137.558 169.057 127.146 195.424 131.75 195.424C135.047 195.424 167.134 195.426 171.978 195.426C175.648 195.426 176.724 192.853 177.085 191.002C178.271 184.915 178.275 164.956 192.206 155.589C216.954 138.947 244.454 158.873 243.23 181.865C243.135 183.647 240.329 195.028 243.792 195.426H287.758C292.987 181.552 279.373 169.599 272.707 163.495C243.693 136.926 251.389 106.276 254.092 98.2891C254.063 98.3071 254.025 98.3381 253.994 98.3591C255.83 92.8721 264.871 73.3171 278.518 66.7491C286.491 62.9121 295.118 58.4991 306.4 56.9571C337.234 52.7431 370.395 74.6991 383.462 84.2191C383.405 84.2801 383.355 84.3141 383.297 84.3771L388.185 88.0611C389.593 89.3471 391.401 90.0171 393.229 90.0171C394.362 90.0171 395.503 89.7611 396.561 89.2331L403.414 85.8181C403.893 86.2621 404.487 86.4601 405.114 86.4601C407.945 86.4601 411.46 82.4431 408.246 78.9801H408.245ZM407.312 82.7411C406.88 83.7321 405.806 84.4231 405.112 84.4231C404.903 84.4231 404.831 84.3561 404.796 84.3231L403.763 83.3671L402.503 83.9951L395.65 87.4101C394.901 87.7841 394.063 87.9801 393.227 87.9801C391.865 87.9801 390.562 87.4751 389.557 86.5571L389.486 86.4921L389.409 86.4341L386.467 84.2171C387.469 83.4591 388.325 83.1121 389.162 82.7721C390.69 82.1491 392.421 81.4461 393.682 78.6651L394.42 77.0371L392.903 76.0931C392.13 75.6121 391.327 75.1191 390.496 74.6141C377.826 66.9311 345.717 49.0591 321.259 49.0591C317.227 49.0591 313.529 49.5541 310.268 50.5311C304.295 52.3201 298.853 53.2271 294.094 53.2271C286.76 53.2271 280.929 51.0871 276.764 46.8661L275.171 45.2501L273.737 47.0081C265.982 56.5071 262.533 66.9041 263.726 77.1391C259.841 81.5631 254.265 91.5921 252.258 97.1371C251.965 97.3691 251.653 97.6421 251.3 97.9531C248.481 100.423 242.617 105.564 228.428 105.822C186.143 106.594 173.813 124.293 161.889 141.412C155.106 151.148 148.7 160.345 136.912 166.462C128.399 170.881 119.786 173.121 111.313 173.121C93.357 173.121 75.622 162.678 62.654 144.47C59.051 139.411 55.994 133.978 53.542 128.425C54.408 129.746 55.331 131.035 56.31 132.289C68.777 148.255 87.582 155.381 101.023 156.725C102.759 156.899 104.522 156.988 106.263 156.988C125.478 156.988 144.974 146.402 164.212 125.523C197.78 89.0941 224.683 71.9441 242.486 60.5961C258.338 50.4901 267.906 44.3911 269.788 32.9471C272.351 17.3651 255.6 9.94809 250.095 7.51208C249.771 7.37008 249.281 7.1651 248.695 6.9231C248.106 6.6771 247.129 6.27209 246.121 5.83009C249.569 5.22509 253.471 4.90909 257.629 4.90909C307.285 4.91109 364.758 44.3851 387.163 61.3561C391.358 64.5311 401.407 74.6121 406.75 80.3641C407.481 81.1521 407.664 81.9291 407.311 82.7391L407.312 82.7411Z" fill="white"/>
</svg>
