<svg width="402" height="102" viewBox="0 0 402 102" fill="none" xmlns="http://www.w3.org/2000/svg">
<path d="M76.722 17.427C75.359 14.883 73.532 8.52 77.779 1.362C78.249 0.569005 77.341 -0.319999 76.554 0.161001C74.272 1.555 71.645 4.18102 69.289 9.98902C69.289 9.98902 66.216 18.729 69.566 20.621C71.201 21.544 72.598 21.753 74.072 21.197C75.363 20.71 77.374 18.645 76.722 17.428V17.427Z" fill="url(#paint0_linear_258_1628)"/>
<path d="M59.306 16.172C56.548 14.712 51.07 10.104 50.563 1.11899C50.507 0.123994 49.212 -0.237003 48.796 0.668997C47.589 3.297 45.863 7.46498 47.551 13.615C48.456 16.911 52.236 23.565 55.688 23.262C57.711 23.084 58.215 22.54 59.202 21.152C60.066 19.936 60.625 16.87 59.306 16.172Z" fill="url(#paint1_linear_258_1628)"/>
<path d="M55.457 29.806C52.697 31.262 45.804 33.194 38.094 28.553C37.24 28.039 36.213 28.906 36.727 29.76C38.219 32.237 40.691 36.0109 46.724 38.0799C49.957 39.1889 57.584 39.813 59.278 36.789C60.27 35.018 60.105 34.2939 59.513 32.6969C58.995 31.2979 56.776 29.11 55.457 29.806Z" fill="url(#paint2_linear_258_1628)"/>
<path d="M59.092 40.818C57.752 42.577 53.896 45.873 47.555 45.188C46.853 45.112 46.451 45.976 47.036 46.371C48.734 47.519 51.448 49.209 55.943 48.741C58.352 48.49 63.442 46.618 63.63 44.169C63.74 42.734 63.418 42.319 62.562 41.468C61.812 40.723 59.733 39.977 59.092 40.818Z" fill="url(#paint3_linear_258_1628)"/>
<path d="M161.24 64.57C160.42 66.624 157.588 70.833 151.296 71.87C150.599 71.985 150.443 72.925 151.113 73.149C153.056 73.8 156.124 74.701 160.329 73.046C162.583 72.159 166.985 68.992 166.51 66.582C166.232 65.17 165.81 64.856 164.757 64.266C163.835 63.749 161.632 63.588 161.24 64.569V64.57Z" fill="url(#paint4_linear_258_1628)"/>
<path d="M153.358 60.542C152.496 62.579 149.58 66.729 143.268 67.64C142.569 67.741 142.394 68.677 143.059 68.915C144.988 69.605 148.037 70.568 152.276 68.998C154.547 68.157 159.013 65.079 158.587 62.661C158.337 61.244 157.922 60.921 156.881 60.31C155.969 59.774 153.769 59.569 153.358 60.542Z" fill="url(#paint5_linear_258_1628)"/>
<path d="M207.956 40.562C201.994 34.468 165.659 9.86003 142.873 3.58904C138.507 2.38704 132.251 2.90603 129.978 4.17703C129.206 4.60903 120.035 0.0870361 118.865 0.0870361C114.351 0.0870361 115.109 10.278 121.55 12.235C114.429 17.505 100.132 41.253 96.712 46.906C77.643 78.427 56.24 88.065 35.227 72.971C23.179 64.317 22.709 47.619 24.067 42.576C25.037 38.971 21.455 37.768 19.316 40.112C7.403 53.165 11.315 73.022 4.706 62.122C3.962 60.895 1.54299 59.849 1.61699 62.122C2.07799 76.239 10.558 89.638 2.87399 86.014C1.18499 85.217 -0.729009 87.652 0.422991 89.122C24.038 119.287 71.375 86.897 71.375 86.897C71.375 86.897 65.757 101.029 68.182 101.029C69.892 101.029 86.541 101.03 89.054 101.03C90.958 101.03 91.517 99.694 91.704 98.734C92.319 95.576 92.322 85.22 99.549 80.36C112.389 71.726 126.658 82.065 126.022 93.994C125.973 94.919 124.517 100.824 126.314 101.03H149.125C151.838 93.831 144.775 87.63 141.316 84.463C124.697 69.244 131.292 51.443 131.987 49.735C136.036 39.787 143.822 31.234 158.797 29.187C178.611 26.479 200.289 44.606 201.7 45.497C201.961 45.662 203.994 46.391 204.898 46.052C206.621 45.406 208.814 44.271 208.814 44.271C208.814 44.271 210.798 43.19 207.954 40.562H207.956Z" fill="url(#paint6_linear_258_1628)"/>
<path d="M84.491 44.094C86.676 43.991 88.835 43.133 90.544 41.506C94.191 38.032 94.446 32.335 91.209 28.553C91.187 28.522 91.172 28.501 91.172 28.501C91.086 28.404 90.996 28.309 90.903 28.214C90.891 28.202 90.881 28.189 90.869 28.177C87.575 24.719 82.283 24.312 78.52 27.039C78.221 27.195 77.925 27.37 77.614 27.544C68.695 32.538 68.116 24.656 68.116 24.656C64.757 24.909 60.796 29.524 64.361 35.1C68.864 42.144 77.43 44.049 84.492 44.095L84.491 44.094Z" fill="url(#paint7_linear_258_1628)"/>
<path d="M167.532 45.241C162.819 43.133 157.289 45.244 155.181 49.957C154.285 51.961 154.154 54.111 154.658 56.085C159.372 56.43 163.904 58.646 167.065 62.502C169.293 61.647 171.196 59.943 172.248 57.592C174.356 52.879 172.245 47.349 167.532 45.241Z" fill="url(#paint8_linear_258_1628)"/>
<path d="M211.751 40.542C209.247 37.845 203.828 32.354 201.446 30.55C163.165 1.55305 136.041 -1.07994 125.066 2.05606C124.009 2.35806 128.215 3.96306 129.221 4.40806C133.175 6.15806 139.946 9.68106 138.829 16.4741C136.875 28.3541 116.783 28.723 84.285 63.99C77.134 71.751 65.903 81.2081 52.363 79.8531C39.118 78.5281 20.487 67.0711 24.068 42.5771C17.174 62.5031 41.053 102.637 71.377 86.899C88.741 77.887 84.658 56.1511 118.42 55.5361C127.68 55.3671 130.588 51.2731 131.66 50.6331C132.601 47.7941 135.906 41.895 137.837 39.942C136.921 33.654 139.664 28.3821 142.74 24.6141C145.842 27.7581 151.368 29.73 161.19 26.787C172.573 23.377 191.544 32.8461 201.989 39.1811C202.417 39.4401 202.83 39.695 203.228 39.942C202.292 42.007 201.041 40.9191 198.799 43.3451L201.336 45.257C202.52 46.34 204.248 46.5821 205.684 45.8661L209.242 44.093C210.614 45.365 213.789 42.7381 211.751 40.5431V40.542ZM150.223 20.7681C149.022 20.4341 147.162 18.7131 146.656 17.5741C145.991 16.0781 148.274 14.6281 149.694 16.7071C150.58 18.0041 152.989 18.3451 152.84 19.5211C152.684 20.7581 151.424 21.1031 150.223 20.7681Z" fill="url(#paint9_linear_258_1628)"/>
<path d="M207.688 90.701L199.737 80.506V100.75H193.445V67.58H197.445L208.665 82.897L218.86 67.58H222.714V100.75H216.324V81.628L210.129 90.36L207.69 90.701H207.688Z" fill="#464646"/>
<path d="M241.833 100.749V87.822L231.004 68.7L237.248 66.895L244.955 81.432L253.004 67.578H259.687L248.175 88.066V100.749H241.834H241.833Z" fill="#464646"/>
<path d="M267.978 67.579H278.368C282.205 67.579 285.351 68.449 287.807 70.189C290.262 71.929 291.49 74.457 291.49 77.774C291.49 79.758 290.978 81.498 289.953 82.994C288.929 84.49 287.555 85.661 285.831 86.506L293.977 100.75H287.245L280.221 88.165H274.27V100.75H267.978V67.579ZM278.173 72.847H274.27V82.993H278.27C280.253 82.993 281.839 82.595 283.026 81.798C284.213 81.002 284.806 79.758 284.806 78.066C284.806 74.587 282.594 72.847 278.172 72.847H278.173Z" fill="#464646"/>
<path d="M316.514 90.701L308.563 80.506V100.75H302.271V67.58H306.271L317.491 82.897L327.686 67.58H331.54V100.75H325.15V81.628L318.955 90.36L316.516 90.701H316.514Z" fill="#464646"/>
<path d="M343.489 100.749V67.579H363.293L364.268 72.555H349.78V81.482H360.609L361.634 86.506H349.78V95.823H365.682L366.707 100.75H343.488L343.489 100.749Z" fill="#464646"/>
<path d="M371.829 100.749L383.439 83.969L372.415 68.75L377.927 66.604L387.195 79.872L395.341 67.579H401.926L390.365 84.213L401.292 100.749H394.658L386.658 88.261L378.317 100.749H371.829Z" fill="#464646"/>
<defs>
<linearGradient id="paint0_linear_258_1628" x1="68.001" y1="10.763" x2="77.908" y2="10.763" gradientUnits="userSpaceOnUse">
<stop stop-color="#121212"/>
<stop offset="0.559"/>
<stop offset="0.776" stop-color="#050505"/>
<stop offset="1" stop-color="#121212"/>
</linearGradient>
<linearGradient id="paint1_linear_258_1628" x1="46.847" y1="11.711" x2="60.09" y2="11.711" gradientUnits="userSpaceOnUse">
<stop stop-color="#121212"/>
<stop offset="0.559"/>
<stop offset="0.776" stop-color="#050505"/>
<stop offset="1" stop-color="#121212"/>
</linearGradient>
<linearGradient id="paint2_linear_258_1628" x1="36.589" y1="33.697" x2="59.99" y2="33.697" gradientUnits="userSpaceOnUse">
<stop stop-color="#121212"/>
<stop offset="0.559"/>
<stop offset="0.776" stop-color="#050505"/>
<stop offset="1" stop-color="#121212"/>
</linearGradient>
<linearGradient id="paint3_linear_258_1628" x1="46.754" y1="44.633" x2="63.651" y2="44.633" gradientUnits="userSpaceOnUse">
<stop stop-color="#121212"/>
<stop offset="0.559"/>
<stop offset="0.776" stop-color="#050505"/>
<stop offset="1" stop-color="#121212"/>
</linearGradient>
<linearGradient id="paint4_linear_258_1628" x1="150.684" y1="68.921" x2="166.546" y2="68.921" gradientUnits="userSpaceOnUse">
<stop stop-color="#121212"/>
<stop offset="0.559"/>
<stop offset="0.776" stop-color="#050505"/>
<stop offset="1" stop-color="#121212"/>
</linearGradient>
<linearGradient id="paint5_linear_258_1628" x1="142.642" y1="64.853" x2="158.615" y2="64.853" gradientUnits="userSpaceOnUse">
<stop stop-color="#121212"/>
<stop offset="0.559"/>
<stop offset="0.776" stop-color="#050505"/>
<stop offset="1" stop-color="#121212"/>
</linearGradient>
<linearGradient id="paint6_linear_258_1628" x1="3.49799" y1="80.352" x2="200.812" y2="35.251" gradientUnits="userSpaceOnUse">
<stop stop-color="#464646"/>
<stop offset="0.525" stop-color="#3A3A3A"/>
<stop offset="1" stop-color="#B9B9B9"/>
</linearGradient>
<linearGradient id="paint7_linear_258_1628" x1="-2.86305" y1="52.522" x2="194.451" y2="7.42196" gradientUnits="userSpaceOnUse">
<stop stop-color="#464646"/>
<stop offset="0.525" stop-color="#3A3A3A"/>
<stop offset="1" stop-color="#B9B9B9"/>
</linearGradient>
<linearGradient id="paint8_linear_258_1628" x1="5.66908" y1="89.851" x2="202.983" y2="44.7501" gradientUnits="userSpaceOnUse">
<stop stop-color="#464646"/>
<stop offset="0.525" stop-color="#3A3A3A"/>
<stop offset="1" stop-color="#B9B9B9"/>
</linearGradient>
<linearGradient id="paint9_linear_258_1628" x1="22.872" y1="45.7521" x2="212.415" y2="45.7521" gradientUnits="userSpaceOnUse">
<stop stop-color="#121212"/>
<stop offset="0.559"/>
<stop offset="0.776" stop-color="#050505"/>
<stop offset="1" stop-color="#121212"/>
</linearGradient>
</defs>
</svg>
