<svg width="402" height="103" viewBox="0 0 402 103" fill="none" xmlns="http://www.w3.org/2000/svg">
<path d="M76.8886 17.4572C75.5216 14.9052 73.6886 8.52214 77.9486 1.34114C78.4206 0.546143 77.5086 -0.345859 76.7196 0.136141C74.4306 1.53514 71.7956 4.16914 69.4316 9.99414C69.4316 9.99414 66.3486 18.7622 69.7086 20.6592C71.3486 21.5852 72.7506 21.7952 74.2296 21.2372C75.5246 20.7482 77.5416 18.6772 76.8886 17.4572Z" fill="url(#paint0_linear_250_800)"/>
<path d="M59.4185 16.1991C56.6525 14.7341 51.1564 10.1121 50.6474 1.0991C50.5914 0.1011 49.2915 -0.260904 48.8745 0.648096C47.6645 3.2841 45.9325 7.4661 47.6255 13.6351C48.5325 16.9411 52.3244 23.6161 55.7874 23.3121C57.8164 23.1341 58.3225 22.5881 59.3125 21.1951C60.1795 19.9751 60.7394 16.9001 59.4174 16.1991H59.4185Z" fill="url(#paint1_linear_250_800)"/>
<path d="M55.5576 29.876C52.7886 31.337 45.8746 33.275 38.1406 28.619C37.2836 28.103 36.2536 28.973 36.7696 29.83C38.2666 32.315 40.7456 36.101 46.7976 38.176C50.0406 39.288 57.6916 39.914 59.3916 36.881C60.3866 35.104 60.2206 34.3781 59.6276 32.7761C59.1076 31.3731 56.8816 29.177 55.5586 29.876H55.5576Z" fill="url(#paint2_linear_250_800)"/>
<path d="M59.2036 40.9221C57.8586 42.6861 53.9916 45.9931 47.6306 45.3051C46.9256 45.2291 46.5226 46.0951 47.1096 46.4921C48.8126 47.6431 51.5356 49.3381 56.0446 48.8691C58.4606 48.6171 63.5666 46.7391 63.7556 44.2831C63.8656 42.8441 63.5426 42.4271 62.6836 41.5731C61.9316 40.8261 59.8456 40.0781 59.2026 40.9211L59.2036 40.9221Z" fill="url(#paint3_linear_250_800)"/>
<path d="M161.673 64.749C160.85 66.809 158.01 71.031 151.697 72.072C150.998 72.187 150.841 73.13 151.513 73.355C153.462 74.008 156.539 74.912 160.758 73.252C163.019 72.362 167.435 69.185 166.959 66.768C166.68 65.352 166.257 65.037 165.2 64.444C164.275 63.925 162.065 63.763 161.672 64.748L161.673 64.749Z" fill="url(#paint4_linear_250_800)"/>
<path d="M153.765 60.7082C152.901 62.7512 149.975 66.9152 143.643 67.8282C142.942 67.9292 142.766 68.8692 143.433 69.1072C145.368 69.8002 148.427 70.7652 152.678 69.1912C154.956 68.3472 159.436 65.2602 159.009 62.8342C158.759 61.4132 158.342 61.0892 157.298 60.4752C156.384 59.9382 154.178 59.7312 153.764 60.7082H153.765Z" fill="url(#paint5_linear_250_800)"/>
<path d="M208.535 40.6652C202.554 34.5522 166.105 9.86722 143.248 3.57622C138.868 2.37122 132.592 2.89121 130.313 4.16621C129.538 4.59921 120.339 0.064209 119.165 0.064209C114.637 0.064209 115.397 10.2872 121.859 12.2502C114.716 17.5372 100.374 41.3592 96.9425 47.0302C77.8135 78.6502 56.3435 88.3182 35.2645 73.1772C23.1795 64.4962 22.7075 47.7462 24.0695 42.6862C25.0425 39.0702 21.4495 37.8632 19.3035 40.2152C7.35353 53.3092 11.2775 73.2282 4.64753 62.2942C3.90153 61.0632 1.47453 60.0132 1.54953 62.2942C2.01253 76.4562 10.5185 89.8962 2.81053 86.2612C1.11553 85.4622 -0.80347 87.9042 0.35153 89.3792C24.0415 119.638 71.5265 87.1472 71.5265 87.1472C71.5265 87.1472 65.8905 101.324 68.3235 101.324C70.0395 101.324 86.7395 101.325 89.2605 101.325C91.1705 101.325 91.7305 99.9852 91.9185 99.0222C92.5355 95.8542 92.5385 85.4662 99.7885 80.5902C112.67 71.9292 126.983 82.3002 126.346 94.2662C126.297 95.1942 124.836 101.117 126.639 101.324H149.522C152.243 94.1032 145.158 87.8822 141.689 84.7052C125.018 69.4392 131.634 51.5812 132.331 49.8682C136.393 39.8882 144.203 31.3092 159.225 29.2562C179.101 26.5402 200.847 44.7232 202.263 45.6172C202.524 45.7822 204.564 46.5142 205.471 46.1742C207.199 45.5262 209.399 44.3872 209.399 44.3872C209.399 44.3872 211.389 43.3032 208.536 40.6662L208.535 40.6652Z" fill="url(#paint6_linear_250_800)"/>
<path d="M84.6826 44.2092C86.8746 44.1052 89.0406 43.2452 90.7546 41.6132C94.4136 38.1282 94.6696 32.4132 91.4216 28.6192C91.3996 28.5882 91.3836 28.5662 91.3836 28.5662C91.2966 28.4692 91.2066 28.3732 91.1146 28.2782C91.1026 28.2662 91.0926 28.2532 91.0806 28.2412C87.7766 24.7722 82.4686 24.3642 78.6926 27.0992C78.3926 27.2562 78.0956 27.4312 77.7836 27.6062C68.8366 32.6162 68.2556 24.7092 68.2556 24.7092C64.8856 24.9632 60.9126 29.5932 64.4886 35.1862C69.0056 42.2522 77.5996 44.1632 84.6826 44.2092Z" fill="url(#paint7_linear_250_800)"/>
<path d="M167.984 45.3592C163.256 43.2442 157.709 45.3622 155.594 50.0902C154.695 52.1002 154.563 54.2572 155.07 56.2372C159.799 56.5832 164.345 58.8062 167.516 62.6742C169.751 61.8162 171.66 60.1072 172.715 57.7492C174.83 53.0212 172.712 47.4742 167.984 45.3592Z" fill="url(#paint8_linear_250_800)"/>
<path d="M212.341 40.6452C209.829 37.9402 204.393 32.4321 202.004 30.6211C163.603 1.53315 136.394 -1.10784 125.384 2.03716C124.323 2.34016 128.543 3.95015 129.552 4.39615C133.518 6.15215 140.311 9.68517 139.19 16.5002C137.23 28.4172 117.074 28.7872 84.4754 64.1651C77.3024 71.9501 66.0354 81.4371 52.4534 80.0781C39.1664 78.7491 20.4774 67.2552 24.0694 42.6852C17.1544 62.6742 41.1084 102.933 71.5264 87.1462C88.9454 78.1062 84.8494 56.3022 118.717 55.6842C128.006 55.5152 130.923 51.4082 131.999 50.7662C132.943 47.9182 136.258 42.0012 138.196 40.0412C137.277 33.7332 140.029 28.4452 143.115 24.6642C146.227 27.8182 151.77 29.7962 161.623 26.8442C173.042 23.4232 192.072 32.9221 202.55 39.2771C202.979 39.5371 203.394 39.7922 203.793 40.0412C202.854 42.1132 201.599 41.0212 199.35 43.4542L201.895 45.3722C203.083 46.4582 204.816 46.7011 206.257 45.9831L209.826 44.2042C211.202 45.4802 214.387 42.8451 212.342 40.6431L212.341 40.6452ZM150.62 20.8092C149.415 20.4742 147.55 18.7482 147.042 17.6052C146.375 16.1042 148.665 14.6492 150.09 16.7352C150.979 18.0362 153.395 18.3782 153.246 19.5582C153.09 20.7992 151.825 21.1452 150.62 20.8092Z" fill="url(#paint9_linear_250_800)"/>
<path d="M207.615 90.9503L199.664 80.7553V100.999H193.372V67.8293H197.372L208.592 83.1464L218.787 67.8293H222.641V100.999H216.251V81.8773L210.056 90.6093L207.617 90.9503H207.615Z" fill="white"/>
<path d="M241.76 100.998V88.0713L230.931 68.9493L237.175 67.1443L244.882 81.6813L252.931 67.8273H259.614L248.102 88.3153V100.998H241.761H241.76Z" fill="white"/>
<path d="M267.905 67.8281H278.295C282.132 67.8281 285.278 68.6981 287.734 70.4381C290.189 72.1781 291.417 74.7061 291.417 78.0231C291.417 80.0071 290.905 81.7471 289.88 83.2431C288.856 84.7391 287.482 85.9101 285.758 86.7551L293.904 100.999H287.172L280.148 88.4142H274.197V100.999H267.905V67.8291V67.8281ZM278.1 73.0961H274.197V83.2421H278.197C280.18 83.2421 281.766 82.8441 282.953 82.0471C284.14 81.2511 284.733 80.0071 284.733 78.3151C284.733 74.8361 282.521 73.0961 278.099 73.0961H278.1Z" fill="white"/>
<path d="M316.441 90.9503L308.49 80.7553V100.999H302.198V67.8293H306.198L317.418 83.1464L327.613 67.8293H331.467V100.999H325.077V81.8773L318.882 90.6093L316.443 90.9503H316.441Z" fill="white"/>
<path d="M343.416 100.998V67.8281H363.22L364.195 72.8041H349.707V81.7311H360.536L361.561 86.7551H349.707V96.0721H365.609L366.634 100.999H343.415L343.416 100.998Z" fill="white"/>
<path d="M371.756 100.998L383.366 84.2183L372.342 68.9993L377.854 66.8533L387.122 80.1212L395.268 67.8282H401.853L390.292 84.4622L401.219 100.998H394.585L386.585 88.5103L378.244 100.998H371.756Z" fill="white"/>
<defs>
<linearGradient id="paint0_linear_250_800" x1="68.1406" y1="10.7721" x2="78.0786" y2="10.7721" gradientUnits="userSpaceOnUse">
<stop stop-color="#FDD524"/>
<stop offset="0.682" stop-color="#FAC62C"/>
<stop offset="0.777" stop-color="#F5C12F"/>
<stop offset="0.886" stop-color="#E7B53B"/>
<stop offset="1" stop-color="#D1A24E"/>
</linearGradient>
<linearGradient id="paint1_linear_250_800" x1="46.9195" y1="11.7241" x2="60.2055" y2="11.7241" gradientUnits="userSpaceOnUse">
<stop stop-color="#FDD524"/>
<stop offset="0.682" stop-color="#FAC62C"/>
<stop offset="0.777" stop-color="#F5C12F"/>
<stop offset="0.886" stop-color="#E7B53B"/>
<stop offset="1" stop-color="#D1A24E"/>
</linearGradient>
<linearGradient id="paint2_linear_250_800" x1="36.6306" y1="33.779" x2="60.1046" y2="33.779" gradientUnits="userSpaceOnUse">
<stop stop-color="#FDD524"/>
<stop offset="0.682" stop-color="#FAC62C"/>
<stop offset="0.777" stop-color="#F5C12F"/>
<stop offset="0.886" stop-color="#E7B53B"/>
<stop offset="1" stop-color="#D1A24E"/>
</linearGradient>
<linearGradient id="paint3_linear_250_800" x1="46.8276" y1="44.7491" x2="63.7766" y2="44.7491" gradientUnits="userSpaceOnUse">
<stop stop-color="#FDD524"/>
<stop offset="0.682" stop-color="#FAC62C"/>
<stop offset="0.777" stop-color="#F5C12F"/>
<stop offset="0.886" stop-color="#E7B53B"/>
<stop offset="1" stop-color="#D1A24E"/>
</linearGradient>
<linearGradient id="paint4_linear_250_800" x1="151.084" y1="69.113" x2="166.995" y2="69.113" gradientUnits="userSpaceOnUse">
<stop stop-color="#FDD524"/>
<stop offset="0.682" stop-color="#FAC62C"/>
<stop offset="0.777" stop-color="#F5C12F"/>
<stop offset="0.886" stop-color="#E7B53B"/>
<stop offset="1" stop-color="#D1A24E"/>
</linearGradient>
<linearGradient id="paint5_linear_250_800" x1="143.015" y1="65.0322" x2="159.038" y2="65.0322" gradientUnits="userSpaceOnUse">
<stop stop-color="#FDD524"/>
<stop offset="0.682" stop-color="#FAC62C"/>
<stop offset="0.777" stop-color="#F5C12F"/>
<stop offset="0.886" stop-color="#E7B53B"/>
<stop offset="1" stop-color="#D1A24E"/>
</linearGradient>
<linearGradient id="paint6_linear_250_800" x1="3.43453" y1="80.5802" x2="201.369" y2="35.3382" gradientUnits="userSpaceOnUse">
<stop stop-color="#5BB1CC"/>
<stop offset="0.525" stop-color="#0058A2"/>
<stop offset="1" stop-color="#404E6D"/>
</linearGradient>
<linearGradient id="paint7_linear_250_800" x1="-2.94542" y1="52.6632" x2="194.988" y2="7.42122" gradientUnits="userSpaceOnUse">
<stop stop-color="#5BB1CC"/>
<stop offset="0.525" stop-color="#0058A2"/>
<stop offset="1" stop-color="#404E6D"/>
</linearGradient>
<linearGradient id="paint8_linear_250_800" x1="5.61361" y1="90.1092" x2="203.547" y2="44.8672" gradientUnits="userSpaceOnUse">
<stop stop-color="#5BB1CC"/>
<stop offset="0.525" stop-color="#0058A2"/>
<stop offset="1" stop-color="#404E6D"/>
</linearGradient>
<linearGradient id="paint9_linear_250_800" x1="22.8704" y1="45.8712" x2="213.007" y2="45.8712" gradientUnits="userSpaceOnUse">
<stop stop-color="#FDD524"/>
<stop offset="0.682" stop-color="#FAC62C"/>
<stop offset="0.777" stop-color="#F5C12F"/>
<stop offset="0.886" stop-color="#E7B53B"/>
<stop offset="1" stop-color="#D1A24E"/>
</linearGradient>
</defs>
</svg>
