<svg width="264" height="236" viewBox="0 0 264 236" fill="none" xmlns="http://www.w3.org/2000/svg">
<path d="M78.6671 12.4545C66.0869 15.6484 55.2222 20.781 45.6128 28.3264C1.54038 62.9427 -1.33269 127.154 39.3227 166.959C45.8778 173.375 53.1023 178.912 61.2613 183.138C63.4091 184.253 64.9851 185.871 66.4635 187.629C77.4258 200.613 84.4272 215.439 86.8261 232.301C87.2166 235.034 88.1092 235.871 91.1635 235.704C99.3225 235.243 107.509 234.937 115.64 235.676C119.546 236.038 120.327 235.034 120.424 231.994C120.815 220.306 119.35 208.912 115.334 197.908C114.483 195.578 114.441 194.504 117.342 194.281C129.281 193.389 140.564 190.014 151.219 184.602C153.395 183.5 154.678 183.626 156.38 185.523C168.151 198.619 175.682 213.751 178.346 231.157C178.89 234.658 180.006 235.885 183.674 235.76C191.833 235.453 200.02 235.564 208.179 235.718C210.884 235.773 211.944 235.146 212.07 232.203C213.158 206.499 204.831 184.337 186.993 165.885C184.329 163.138 184.036 161.227 185.668 157.907C201.484 125.62 225.905 102.468 259.015 88.5911C262.614 87.0849 263.869 85.3832 263.66 81.5199C263.311 74.7277 263.576 74.7277 256.923 74.8532C232.739 75.3414 210.243 81.8131 189.406 94.0027C187.537 95.0906 186.045 95.1741 184.106 94.5325C179.852 93.11 175.557 91.8407 171.233 90.6553C168.681 89.9579 166.24 90.2228 164.999 93.0262C163.757 95.8295 165.32 97.6149 167.467 99.191C173.967 104.017 173.925 104.002 167.844 109.47C158.848 117.587 150.745 126.597 141.61 134.602C122.433 151.394 86.5611 153.919 61.861 136.945C39.4761 121.576 28.3604 100.07 30.8987 73.0683C33.5765 44.5747 49.3227 24.9371 76.0032 14.2537C76.6308 14.0027 77.2724 13.7655 77.886 13.5006C77.9837 13.4587 78.0395 13.3053 78.6392 12.4545H78.6671Z" fill="url(#paint0_linear_12_112)"/>
<path d="M53.2697 188.005C43.5486 182.119 34.9434 174.881 27.5654 166.22C26.2265 164.644 25.557 165.23 24.4552 166.415C6.93785 185.202 -1.15139 207.405 0.131731 233.054C0.243307 235.313 1.26143 235.717 3.20006 235.704C12.1819 235.648 21.1638 235.648 30.1595 235.731C32.1261 235.745 33.0047 235.159 33.4789 233.165C37.0401 217.954 43.6416 202.896 53.2836 187.991L53.2697 188.005Z" fill="url(#paint1_linear_12_112)"/>
<g style="mix-blend-mode:multiply" opacity="0.2">
<path d="M85.5987 163.319C117.398 163.221 147.049 155.202 174.525 139.261C186.407 130.083 198.29 120.892 210.187 111.715C210.424 111.464 210.661 111.213 210.898 110.976C211.121 110.837 211.359 110.711 211.582 110.572C215.361 108.284 219.085 105.899 222.683 103.347C228.75 99.0375 234.845 94.6163 240.884 90.0696C248.695 87.0152 256.351 83.3609 263.855 79.135C263.897 79.8184 263.939 80.6133 263.98 81.5338C264.176 85.3972 262.934 87.0988 259.336 88.6051C226.212 102.482 201.791 125.634 185.989 157.921C184.357 161.255 184.65 163.151 187.314 165.899C205.152 184.351 213.478 206.513 212.391 232.217C212.265 235.16 211.205 235.787 208.499 235.732C200.326 235.564 192.154 235.467 183.995 235.773C180.34 235.913 179.211 234.672 178.667 231.171C175.989 213.765 168.458 198.633 156.7 185.536C154.999 183.64 153.716 183.5 151.54 184.616C140.885 190.027 129.601 193.389 117.663 194.295C114.762 194.518 114.804 195.592 115.654 197.921C119.671 208.925 121.136 220.306 120.745 232.008C120.647 235.048 119.866 236.052 115.961 235.69C107.83 234.937 99.6433 235.257 91.4844 235.718C88.43 235.885 87.5374 235.062 87.1469 232.315C84.734 215.453 77.7466 200.627 66.7843 187.642C65.3059 185.885 63.7299 184.253 61.5821 183.152C53.4231 178.926 46.2125 173.403 39.6435 166.973C35.1247 162.552 31.1777 157.824 27.7328 152.887C45.8778 160.613 65.1665 164.1 85.6266 163.333L85.5987 163.319Z" fill="#214497"/>
</g>
<path d="M85.5987 163.319C117.398 163.221 147.049 155.202 174.525 139.261C186.407 130.083 198.29 120.892 210.187 111.715C210.424 111.464 210.661 111.213 210.898 110.976C211.121 110.837 211.359 110.711 211.582 110.572C215.361 108.284 219.085 105.899 222.683 103.347C228.75 99.0375 234.845 94.6163 240.884 90.0696C248.695 87.0152 256.351 83.3609 263.855 79.135C263.897 79.8184 263.939 80.6133 263.98 81.5338C264.176 85.3972 262.934 87.0988 259.336 88.6051C226.212 102.482 201.791 125.634 185.989 157.921C184.357 161.255 184.65 163.151 187.314 165.899C205.152 184.351 213.478 206.513 212.391 232.217C212.265 235.16 211.205 235.787 208.499 235.732C200.326 235.564 192.154 235.467 183.995 235.773C180.34 235.913 179.211 234.672 178.667 231.171C175.989 213.765 168.458 198.633 156.7 185.536C154.999 183.64 153.716 183.5 151.54 184.616C140.885 190.027 129.601 193.389 117.663 194.295C114.762 194.518 114.804 195.592 115.654 197.921C119.671 208.925 121.136 220.306 120.745 232.008C120.647 235.048 119.866 236.052 115.961 235.69C107.83 234.937 99.6433 235.257 91.4844 235.718C88.43 235.885 87.5374 235.062 87.1469 232.315C84.734 215.453 77.7466 200.627 66.7843 187.642C65.3059 185.885 63.7299 184.253 61.5821 183.152C53.4231 178.926 46.2125 173.403 39.6435 166.973C35.1247 162.552 31.1777 157.824 27.7328 152.887C45.8778 160.613 65.1665 164.1 85.6266 163.333L85.5987 163.319Z" fill="url(#paint2_linear_12_112)"/>
<path d="M78.165 136.067C55.6964 128.745 17.1052 75.774 75.4872 31.8969C79.1692 28.8564 83.1859 26.0112 87.5234 23.4449C101.136 15.3836 115.571 11.2972 128.653 10.9764L133.018 0C117.021 0.251045 99.2807 5.23022 82.5862 15.1047C44.3575 37.7406 29.3925 75.8717 41.7634 104.072C48.723 119.944 63.7996 133.473 78.1371 136.067H78.165Z" fill="url(#paint3_linear_12_112)"/>
<defs>
<linearGradient id="paint0_linear_12_112" x1="137.175" y1="205.578" x2="137.175" y2="116.443" gradientUnits="userSpaceOnUse">
<stop stop-color="#25599A"/>
<stop offset="1" stop-color="#47C1C2"/>
</linearGradient>
<linearGradient id="paint1_linear_12_112" x1="-34.387" y1="280.752" x2="82.391" y2="131.645" gradientUnits="userSpaceOnUse">
<stop stop-color="#0058A0"/>
<stop offset="0.46" stop-color="#14BAAF"/>
<stop offset="1" stop-color="#F5EB12"/>
</linearGradient>
<linearGradient id="paint2_linear_12_112" x1="263.994" y1="157.447" x2="27.7049" y2="157.447" gradientUnits="userSpaceOnUse">
<stop stop-color="#0058A0"/>
<stop offset="0.46" stop-color="#14BAAF"/>
<stop offset="1" stop-color="#F5EB12"/>
</linearGradient>
<linearGradient id="paint3_linear_12_112" x1="152.392" y1="32.6039" x2="38.838" y2="99.8396" gradientUnits="userSpaceOnUse">
<stop stop-color="#0058A0"/>
<stop offset="0.46" stop-color="#14BAAF"/>
<stop offset="1" stop-color="#F5EB12"/>
</linearGradient>
</defs>
</svg>
